# xmcd
#
# Track frame offsets:
#	150
#	16647
#	33783
#	53903
#	77493
#	97938
#	118664
#	145068
#	169309
#	191866
#	211412
#
# Disc length: 3147 seconds
#
# Revision: 0
# Processed by: cddbd v1.5PL3 Copyright (c) Steve Scherf et al.
# Submitted via: dBpowerAMP V4.0
#
DISCID=880c490b
DTITLE=Shirley Brown - Woman Enough
DYEAR=2004
DGENRE=Blues
TTITLE0=poon tang man
TTITLE1=think again
TTITLE2=my heart can't take another break
TTITLE3=(i'd have to be stupid) stuck on stupid
TTITLE4=too much candy
TTITLE5=i'm so fed up
TTITLE6=(i've got to) sleep with one eye open
TTITLE7=hook, line and sinker
TTITLE8=woman enough! (why can't you be man enough)
TTITLE9=it's best we say goodbye
TTITLE10=miss lizzie's daughter
EXTD=
EXTT0=
EXTT1=
EXTT2=
EXTT3=
EXTT4=
EXTT5=
EXTT6=
EXTT7=
EXTT8=
EXTT9=
EXTT10=
PLAYORDER=
